<svg width="223" height="35" viewBox="0 0 223 35" fill="none" xmlns="http://www.w3.org/2000/svg">
<g clip-path="url(#clip0_1132_911)">
<path d="M78.8637 11.2286C81.0544 9.50451 84.1312 8.05134 87.4295 8.05134C90.5555 8.05134 93.1646 9.3321 93.1646 14.2088V30.7848H88.8079V15.2433C88.8079 12.4601 87.5772 11.6966 85.4357 11.6966C82.9989 11.6966 80.7344 12.8542 78.8884 13.9133V30.7848H74.5316V0.810127H76.9192C78.593 0.810127 78.8884 1.20421 78.8884 3.71646V11.2286H78.8637Z" fill="#8000FF"/>
<path d="M100.869 20.3173C101.089 25.5632 103.455 27.5304 107.627 27.5304C110.481 27.5304 112.433 26.6075 113.775 25.5146H115.165V28.5019C113.555 29.5948 111.14 30.7848 106.968 30.7848C100.186 30.7848 96.4051 26.4861 96.4051 19.5402C96.4051 12.4971 100.772 8.10127 106.554 8.10127C112.408 8.10127 115.848 11.5257 115.848 18.7873C115.848 19.3702 115.799 20.1473 115.799 20.3173H100.869ZM100.943 17.4758H111.555C111.481 12.6914 109.603 11.0642 106.554 11.0642C103.65 11.0642 101.406 12.7886 100.943 17.4758Z" fill="#8000FF"/>
<path d="M131.872 28.089C130.209 29.8619 128.204 30.7848 125.246 30.7848C121.212 30.7848 118.278 28.5019 118.278 24.2032C118.278 19.6859 121.897 17.4758 126.909 17.4758C128.816 17.4758 130.234 17.6944 131.749 18.0587V15.1443C131.749 12.5214 130.209 11.3799 127.275 11.3799C124.635 11.3799 122.606 12.1814 121.188 13.2014H119.819V9.99561C121.775 9.02415 124.244 8.10127 127.813 8.10127C133.094 8.10127 136.101 9.99561 136.101 14.8529V30.5177H134.39C132.727 30.5419 132.141 30.0562 131.872 28.089ZM131.749 25.2961V20.6088C130.527 20.3659 129.158 20.1959 127.618 20.1959C124.635 20.1959 122.508 21.2888 122.508 23.9603C122.508 26.7047 124.244 27.8461 126.64 27.8461C128.987 27.8219 130.478 26.729 131.749 25.2961Z" fill="#8000FF"/>
<path d="M155.381 27.514C153.872 29.3447 151.55 30.7848 148.556 30.7848C144.007 30.7848 140.152 27.4651 140.152 19.7518C140.152 11.0376 144.773 7.98648 149.155 7.98648C152.148 7.98648 153.944 8.88962 155.357 10.281V0.810127H157.679C159.355 0.810127 159.595 1.22509 159.595 3.69043V30.5163H156.793C155.836 30.5407 155.5 30.0281 155.381 27.514ZM155.333 24.6337V13.3321C154.088 12.1361 152.579 11.4526 150.328 11.4526C147.455 11.4526 144.414 13.0148 144.414 19.5077C144.414 25.5856 146.617 27.5628 149.586 27.5628C152.004 27.6116 153.705 26.4644 155.333 24.6337Z" fill="#8000FF"/>
<path d="M163.646 19.5402C163.646 12.4971 168.197 8.10127 174.177 8.10127C180.157 8.10127 184.709 12.4971 184.709 19.5402C184.709 26.559 180.157 30.7848 174.177 30.7848C168.197 30.7848 163.646 26.559 163.646 19.5402ZM180.303 19.5402C180.303 14.2215 177.906 11.3556 174.153 11.3556C170.449 11.3556 168.003 14.2215 168.003 19.5402C168.003 24.8589 170.449 27.5304 174.153 27.5304C177.906 27.5304 180.303 24.8832 180.303 19.5402Z" fill="#8000FF"/>
<path d="M203.013 25.2246V8.10127H207.392V30.4896H204.646C203.606 30.4896 203.186 30.1451 203.062 27.9555C200.835 29.5301 197.89 30.7848 194.921 30.7848C191.382 30.7848 188.759 29.3333 188.759 24.8064V8.10127H193.139V23.7977C193.139 26.6762 194.55 27.3405 196.628 27.3405C198.905 27.3651 201.206 26.2825 203.013 25.2246Z" fill="#8000FF"/>
<path d="M210.633 7.7892H213.312V1.62025H215.917C217.257 1.62025 217.671 2.12179 217.671 4.05272L217.622 7.7892H222.541V10.9238H217.622V24.34C217.622 26.7725 218.596 27.4746 220.788 27.4746H222.785V30.3585C222.006 30.534 220.788 30.7848 219.278 30.7848C215.528 30.7848 213.336 29.1548 213.336 24.9168V10.9238H210.657V7.7892H210.633Z" fill="#8000FF"/>
<path d="M60.6761 13.9015C56.1661 22.3708 45.0019 26.5931 33.4928 26.5931C24.3495 26.5931 15.3541 25.3832 7.51706 21.9016C26.2472 23.9017 44.3858 23.1115 60.6761 13.9015ZM60.6761 10.3706C55.2049 8.7409 50.276 8.27176 45.1745 8.32114C32.2359 8.41991 19.1495 12.3212 7.591 17.4324C16.7835 9.25943 30.4615 3.3087 44.164 3.3087C50.6949 3.3087 58.2116 6.09888 60.6761 10.3706ZM63.1899 12.2224C63.1899 3.53093 50.1034 0 42.636 0C30.9297 0 21.0964 4.27168 12.6925 8.96313C12.1749 8.02484 11.4356 7.852 10.2773 7.70385C8.55215 7.55569 7.49242 7.48162 6.18624 7.48162C4.75684 7.48162 2.61273 7.58039 0.936878 7.852C0.123596 8.00015 -0.147497 8.64213 0.0743067 9.62981C0.813654 12.3212 1.92267 14.741 3.37672 17.0127C2.73596 19.2349 2.95776 21.3337 4.80613 23.0622C4.16536 25.6548 3.9682 28.4944 4.06678 31.0623C4.21465 32.124 4.75684 32.4203 5.64405 32.2722C8.94647 31.7537 12.1503 30.5932 14.9352 29.1116C15.6252 28.7413 15.9456 28.3215 16.1428 27.803L24.3002 29.0623C25.5571 30.4203 26.814 31.5808 28.342 32.8648C29.3524 33.6056 30.4368 34.0253 31.7676 34.0253C37.7071 33.9759 42.71 33.087 46.8503 31.5068C48.4769 30.9882 49.6845 28.8153 51.4836 25.7783C55.476 23.7535 63.1899 19.951 63.1899 12.2224Z" fill="#8000FF"/>
</g>
<defs>
<clipPath id="clip0_1132_911">
<rect width="222.785" height="34.0253" fill="white"/>
</clipPath>
</defs>
</svg>
