<svg xmlns="http://www.w3.org/2000/svg" viewBox="0 0 1000 500" width="1000" height="500"><path fill="#000" fill-rule="evenodd" d="M74,70 L720,70 L720,104 L820,104 L820,142 L900,142 L900,100 L938,100 Q940,100 940,114 L940,470 L60,470 L60,84 Q60,70 74,70 Z M40,470 L960,470 L960,500 L40,500 Z M75.2,210 L75.2,175 A24.8,24.8 0 0 1 124.8,175 L124.8,210 Z M155.2,210 L155.2,175 A24.8,24.8 0 0 1 204.8,175 L204.8,210 Z M235.2,210 L235.2,175 A24.8,24.8 0 0 1 284.8,175 L284.8,210 Z M315.2,210 L315.2,175 A24.8,24.8 0 0 1 364.8,175 L364.8,210 Z M395.2,210 L395.2,175 A24.8,24.8 0 0 1 444.8,175 L444.8,210 Z M475.2,210 L475.2,175 A24.8,24.8 0 0 1 524.8,175 L524.8,210 Z M555.2,210 L555.2,175 A24.8,24.8 0 0 1 604.8,175 L604.8,210 Z M635.2,210 L635.2,175 A24.8,24.8 0 0 1 684.8,175 L684.8,210 Z M715.2,210 L715.2,175 A24.8,24.8 0 0 1 764.8,175 L764.8,210 Z M795.2,210 L795.2,175 A24.8,24.8 0 0 1 844.8,175 L844.8,210 Z M875.2,210 L875.2,175 A24.8,24.8 0 0 1 924.8,175 L924.8,210 Z M75.2,340 L75.2,300 A24.8,24.8 0 0 1 124.8,300 L124.8,340 Z M155.2,340 L155.2,300 A24.8,24.8 0 0 1 204.8,300 L204.8,340 Z M235.2,340 L235.2,300 A24.8,24.8 0 0 1 284.8,300 L284.8,340 Z M315.2,340 L315.2,300 A24.8,24.8 0 0 1 364.8,300 L364.8,340 Z M395.2,340 L395.2,300 A24.8,24.8 0 0 1 444.8,300 L444.8,340 Z M475.2,340 L475.2,300 A24.8,24.8 0 0 1 524.8,300 L524.8,340 Z M555.2,340 L555.2,300 A24.8,24.8 0 0 1 604.8,300 L604.8,340 Z M635.2,340 L635.2,300 A24.8,24.8 0 0 1 684.8,300 L684.8,340 Z M715.2,340 L715.2,300 A24.8,24.8 0 0 1 764.8,300 L764.8,340 Z M795.2,340 L795.2,300 A24.8,24.8 0 0 1 844.8,300 L844.8,340 Z M875.2,340 L875.2,300 A24.8,24.8 0 0 1 924.8,300 L924.8,340 Z M75.2,470 L75.2,430 A24.8,24.8 0 0 1 124.8,430 L124.8,470 Z M155.2,470 L155.2,430 A24.8,24.8 0 0 1 204.8,430 L204.8,470 Z M235.2,470 L235.2,430 A24.8,24.8 0 0 1 284.8,430 L284.8,470 Z M315.2,470 L315.2,430 A24.8,24.8 0 0 1 364.8,430 L364.8,470 Z M395.2,470 L395.2,430 A24.8,24.8 0 0 1 444.8,430 L444.8,470 Z M475.2,470 L475.2,430 A24.8,24.8 0 0 1 524.8,430 L524.8,470 Z M555.2,470 L555.2,430 A24.8,24.8 0 0 1 604.8,430 L604.8,470 Z M635.2,470 L635.2,430 A24.8,24.8 0 0 1 684.8,430 L684.8,470 Z M715.2,470 L715.2,430 A24.8,24.8 0 0 1 764.8,430 L764.8,470 Z M795.2,470 L795.2,430 A24.8,24.8 0 0 1 844.8,430 L844.8,470 Z M875.2,470 L875.2,430 A24.8,24.8 0 0 1 924.8,430 L924.8,470 Z "></path></svg>